<?xml version="1.0" encoding="UTF-8"?>
<!-- Generator: Adobe Illustrator 19.0.0, SVG Export Plug-In . SVG Version: 6.00 Build 0)  -->
<svg version="1.1" id="Capa_1" xmlns="http://www.w3.org/2000/svg" xmlns:xlink="http://www.w3.org/1999/xlink" x="0px" y="0px" viewBox="-41 42.3 512 512" style="enable-background:new -41 42.3 512 512;" xml:space="preserve">
<style type="text/css">
	.st0{fill:none;}
	.st1{fill:#82CBC4;}
	.st2{fill:#5CC4B8;}
</style>
<path class="st0" d="M176.3,219.7v29.6h-30v49h30V446h48.6V298.3h48.8l7.7-49h-56.5v-24.5c0-12.8,4.2-25,22.5-25H284v-48.9h-52  C188.2,150.9,176.3,179.7,176.3,219.7z"/>
<g>
	<path class="st1" d="M215,42.3c-141.4,0-256,114.6-256,256c0,141.4,114.6,256,256,256c27.2,0,53.3-4.2,77.9-12.1   C393.5,510.1,467.1,417.4,470.8,307c0.1-2.9,0.2-5.8,0.2-8.7C471,156.9,356.4,42.3,215,42.3z M284,199.8h-36.6   c-18.4,0-22.5,12.2-22.5,25v24.5h56.5l-7.7,49h-48.8V446h-48.6V323.7v-25.4h-30v-49h30v-29.6c0-40,11.9-68.7,55.7-68.7h52V199.8z"/>
	<path class="st2" d="M471,307L284.2,150.9v48.9h-36.6c-18.4,0-22.5,12.2-22.5,25v24.5h56.5l-7.7,49H225V446h-48.6l116.6,96.2   C393.7,510.1,467.3,417.4,471,307z"/>
</g>
</svg>