<?xml version="1.0" encoding="utf-8"?>
<!-- Generator: Adobe Illustrator 19.0.0, SVG Export Plug-In . SVG Version: 6.00 Build 0)  -->
<svg version="1.1" id="Capa_1" xmlns="http://www.w3.org/2000/svg" xmlns:xlink="http://www.w3.org/1999/xlink" x="0px" y="0px"
	 viewBox="-41 42.3 512 512" style="enable-background:new -41 42.3 512 512;" xml:space="preserve">
<style type="text/css">
	.st0{fill:#82CBC4;}
	.st1{fill:#5CC4B8;}
	.st2{fill:none;}
</style>
<path class="st0" d="M462.2,274.8C451,148,344.2,48.3,214.6,48.3C77.5,48.3-34,159.8-34,296.9c0,137.1,111.5,248.6,248.6,248.6
	c6.2,0,12.4-0.2,18.6-0.7c128.4-9.5,230-117.1,230-247.9C463.2,289.4,462.8,282.1,462.2,274.8z M356,267.9v115.8
	c0,30.2-24.5,54.7-54.6,54.7H127.9c-10,0-19.4-2.7-27.5-7.5c-16.2-9.5-27.1-27.1-27.1-47.2V267.9v-57.7c0-30.1,24.5-54.6,54.6-54.6
	h173.5c18.3,0,34.5,9,44.4,22.8c6.4,9,10.3,20,10.3,31.8V267.9z"/>
<path class="st1" d="M214.6,346.6c27.4,0,49.8-22.3,49.8-49.8c0-10.8-3.5-20.8-9.4-29c-9-12.5-23.7-20.8-40.3-20.8
	c-16.6,0-31.3,8.2-40.4,20.7c-5.9,8.2-9.4,18.2-9.4,29C164.8,324.3,187.2,346.6,214.6,346.6z"/>
<polygon class="st1" points="323.3,236 323.3,194.3 323.3,188.1 317,188.1 275.3,188.2 275.5,236.2 "/>
<path class="st1" d="M291.9,296.9c0,42.6-34.7,77.3-77.3,77.3s-77.3-34.7-77.3-77.3c0-10.3,2-20.1,5.7-29h-42.2v115.8
	c0,15,12.1,27.1,27.1,27.1h173.5c14.9,0,27.1-12.1,27.1-27.1V267.9h-42.2C289.9,276.8,291.9,286.6,291.9,296.9z"/>
<path class="st2" d="M301.3,155.5H127.9c-30.1,0-54.6,24.5-54.6,54.6v57.7v115.8c0,20.1,10.9,37.7,27.1,47.2L90,422l10.3,8.9
	c8.1,4.7,17.5,7.5,27.5,7.5h173.5c30.1,0,54.6-24.5,54.6-54.7V267.9v-57.7c0-11.9-3.8-22.8-10.3-31.8l-6.4-5.3l6.4,5.3
	C335.8,164.5,319.6,155.5,301.3,155.5z"/>
<path class="st1" d="M345.7,178.3c6.4,9,10.3,20,10.3,31.8v57.7v115.8c0,30.2-24.5,54.7-54.6,54.7H127.9c-10,0-19.4-2.7-27.5-7.5
	l132.8,114c128.4-9.5,230-117.1,230-247.9c0-7.4-0.3-14.8-1-22.1L345.7,178.3z"/>
</svg>
