<?xml version="1.0" encoding="utf-8"?>
<!-- Generator: Adobe Illustrator 19.0.0, SVG Export Plug-In . SVG Version: 6.00 Build 0)  -->
<svg version="1.1" id="Capa_1" xmlns="http://www.w3.org/2000/svg" xmlns:xlink="http://www.w3.org/1999/xlink" x="0px" y="0px"
	 viewBox="-41 42.3 512 512" style="enable-background:new -41 42.3 512 512;" xml:space="preserve">
<style type="text/css">
	.st0{fill:none;}
	.st1{fill:#5CC4B8;}
	.st2{fill:#82CBC4;}
</style>
<path class="st0" d="M263.1,561.8"/>
<path class="st0" d="M129,198.7"/>
<path class="st0" d="M104.8,178.7"/>
<path class="st0" d="M310.1,198.7c-31.5,0-53.9,14.1-62.9,21v-21.1h-27.6l9.5,8.1l-9.5-8.1h-35.3v220.3h62.9V282.8
	c0,0,6.3-27.1,38.8-27.1c19.6,0,24.2,11.2,24.2,27.1v136.2h62.9h0V284.7c0-34.3-9.2-55.3-21.1-67.9l-9.7-8.3l9.7,8.3
	C338.3,202.2,321,198.7,310.1,198.7z"/>
<polygon class="st0" points="89.9,418.9 152.8,418.9 152.8,198.7 128.4,198.7 140,208.5 128.4,198.7 89.9,198.7 "/>
<path class="st0" d="M106,179.6l-3.6-3C103.5,177.6,104.7,178.7,106,179.6z"/>
<path class="st0" d="M93.8,155.7c0,8.1,3.3,15.5,8.6,20.9l3.6,3c4.9,3.5,10.8,5.6,17.3,5.6c16.3,0,29.5-13.2,29.5-29.5
	c0-9.2-4.2-17.3-10.7-22.8c-5.1-4.2-11.6-6.7-18.8-6.8C107,126.1,93.8,139.4,93.8,155.7z"/>
<path class="st1" d="M247.2,219.7c3.2-2.4,8-5.8,14.4-9.1l-14.4-12V219.7z"/>
<g>
	<path class="st2" d="M215.7,45.3C76.7,45.3-36,158-36,297S76.7,548.7,215.7,548.7c8.6,0,17.1-0.4,25.5-1.3
		c121.3-12.2,217.3-110.6,225.6-233c0.4-5.8,0.6-11.6,0.6-17.5C467.4,158,354.7,45.3,215.7,45.3z M123.3,126.1
		c7.1,0,13.7,2.6,18.8,6.8c6.6,5.4,10.7,13.6,10.7,22.8c0,16.3-13.2,29.5-29.5,29.5c-6.5,0-12.4-2.1-17.3-5.6
		c-1.3-0.9-2.5-1.9-3.6-3c-5.3-5.3-8.6-12.7-8.6-20.9C93.8,139.4,107,126.1,123.3,126.1z M89.9,198.7h38.6h24.4v220.3H89.9V198.7z
		 M373.1,284.7v134.3h0h-62.9V282.8c0-16-4.6-27.1-24.2-27.1c-32.5,0-38.8,27.1-38.8,27.1v136.2h-62.9V198.7h35.3h27.6l14.4,12
		c11.6-6,28.2-12,48.5-12c10.9,0,28.2,3.5,41.9,18.1C363.9,229.4,373.1,250.4,373.1,284.7z"/>
	<path class="st1" d="M466.8,314.3L352,216.6c11.9,12.6,21.1,33.6,21.1,67.9v134.3h0h-62.9V282.6c0-16-4.6-27.1-24.2-27.1
		c-32.5,0-38.8,27.1-38.8,27.1v136.2h-62.9V198.5h35.3l-77.5-65.8c6.6,5.4,10.7,13.6,10.7,22.8c0,16.3-13.2,29.5-29.5,29.5
		c-6.5,0-12.4-2.1-17.3-5.6l22.4,19.1h24.4v220.3H89.9l151.3,128.5C362.5,535.1,458.4,436.7,466.8,314.3z"/>
</g>
</svg>
