<?xml version="1.0" encoding="UTF-8"?>
<!-- Generator: Adobe Illustrator 19.0.0, SVG Export Plug-In . SVG Version: 6.00 Build 0)  -->
<svg version="1.1" id="Capa_1" xmlns="http://www.w3.org/2000/svg" xmlns:xlink="http://www.w3.org/1999/xlink" x="0px" y="0px" viewBox="-41 42.3 512 512" style="enable-background:new -41 42.3 512 512;" xml:space="preserve">
<style type="text/css">
	.st0{fill:none;}
	.st1{fill:#82CBC4;}
	.st2{fill:#5CC4B8;}
</style>
<path class="st0" d="M277.8,180.5c-34,0-61.6,27.6-61.6,61.5c0,4.8,0.5,9.5,1.6,14c-51.2-2.6-96.5-27.1-126.9-64.3  c-5.3,9.1-8.3,19.7-8.3,30.9c0,21.3,10.9,40.2,27.4,51.2c-10.1-0.3-19.6-3.1-27.9-7.7v0.8c0,29.8,21.2,54.7,49.4,60.3  c-5.2,1.4-10.6,2.1-16.2,2.1c-4,0-7.8-0.3-11.6-1.1c7.8,24.4,30.6,42.2,57.5,42.7c-21.1,16.5-47.6,26.3-76.4,26.3  c-5,0-9.9-0.3-14.7-0.9c27.2,17.5,59.6,27.7,94.3,27.7c113.2,0,175.1-93.7,175.1-175.1l-0.2-8c12-8.6,22.5-19.5,30.7-31.8  c-11,4.9-22.9,8.2-35.3,9.7c12.7-7.6,22.5-19.7,27.1-34.1c-11.9,7-25.1,12.2-39.1,14.9C311.5,188,295.5,180.5,277.8,180.5z"/>
<path class="st1" d="M463.4,269.3c-13.9-124.9-119.8-222-248.4-222c-138.1,0-250,111.9-250,250s111.9,250,250,250  c11.5,0,22.8-0.8,33.9-2.3c122-16.6,216-121.1,216-247.7C465,287.8,464.4,278.5,463.4,269.3z M339.4,241.1l0.2,8  c0,81.4-61.9,175.1-175.1,175.1c-34.7,0-67.1-10.2-94.3-27.7c4.8,0.6,9.7,0.9,14.7,0.9c28.8,0,55.4-9.8,76.4-26.3  c-26.9-0.5-49.7-18.3-57.5-42.7c3.8,0.7,7.6,1.1,11.6,1.1c5.6,0,11.1-0.7,16.2-2.1c-28.2-5.7-49.4-30.5-49.4-60.3v-0.8  c8.3,4.6,17.8,7.4,27.9,7.7c-16.5-11-27.4-29.9-27.4-51.2c0-11.3,3-21.8,8.3-30.9c30.3,37.2,75.7,61.7,126.9,64.3  c-1.1-4.5-1.6-9.2-1.6-14c0-34,27.6-61.5,61.6-61.5c17.7,0,33.7,7.5,44.9,19.4c14-2.8,27.2-7.9,39.1-14.9  c-4.6,14.4-14.3,26.4-27.1,34.1c12.4-1.5,24.3-4.8,35.3-9.7C361.9,221.7,351.4,232.5,339.4,241.1z"/>
<path class="st2" d="M361.8,185c-4.6,14.4-14.3,26.4-27.1,34.1c12.4-1.5,24.3-4.8,35.3-9.7c-8.2,12.3-18.7,23.2-30.7,31.8l0.2,8  c0,81.4-61.9,175.1-175.1,175.1c-34.7,0-67.1-10.2-94.3-27.7l178.8,148.4c122-16.6,216-121.1,216-247.7c0-9.5-0.5-18.8-1.6-28  L361.8,185z"/>
</svg>