<?xml version="1.0" encoding="utf-8"?>
<!-- Generator: Adobe Illustrator 19.0.0, SVG Export Plug-In . SVG Version: 6.00 Build 0)  -->
<svg version="1.1" id="Capa_1" xmlns="http://www.w3.org/2000/svg" xmlns:xlink="http://www.w3.org/1999/xlink" x="0px" y="0px"
	 viewBox="-41 42.3 512 512" style="enable-background:new -41 42.3 512 512;" xml:space="preserve">
<style type="text/css">
	.st0{fill:none;}
	.st1{fill:#5CC4B8;}
	.st2{fill:#82CBC4;}
</style>
<path class="st0" d="M276.2,174.5v61.1c-3.9,5.5-7.5,8.2-11,8.2c-2.3,0-3.7-1.4-4.1-4.1c-0.2-0.6-0.2-2.7-0.2-6.8V162h-17.4v21.9
	v54.3c0,6.8,0.6,11.4,1.5,14.3c1.7,4.9,5.6,7.1,11.2,7.1c6.4,0,13-3.9,19.9-11.8v10.5h17.4V162h-17.4V174.5z"/>
<path class="st0" d="M319.3,359.4c0-8.8-2.9-13.2-8.6-13.2c-5.8,0-8.7,4.4-8.7,13.2v8.8h17.3V359.4z"/>
<path class="st0" d="M77.2,300.4c-5,21.6-5,45.2-5,67.5c0,22.3,0,45.9,5,67.5c2.4,10.3,8.8,18.7,17.3,23.6l-3.6-3l3.6,3
	c4.1,2.4,8.7,3.9,13.5,4.5c35.4,4,71.3,4,107,4c35.7,0,71.5,0,107-4c15-1.7,27.4-12.9,30.9-28.1c5-21.6,5-45.2,5-67.5
	c0-22.3,0-45.9-4.9-67.5c-3.5-15.2-15.9-26.4-30.9-28.1c-35.4-4-71.3-4-107-4c-22.3,0-44.7,0-67,1l1.6,1.3l-1.6-1.3
	c-13.4,0.6-26.7,1.5-40,3C93.1,274,80.7,285.2,77.2,300.4z M284.8,362.8c0-10.2,1.7-17.6,5.3-22.4c5-6.5,11.8-9.8,20.7-9.8
	c8.7,0,15.5,3.2,20.4,9.8c3.6,4.8,5.3,12.3,5.3,22.4v19.7H302v16.9c0,8.8,2.9,13.2,8.8,13.2c4.2,0,6.7-2.3,7.7-6.9
	c0.2-0.9,0.4-4.8,0.4-11.7h17.6v2.5c0,5.6-0.2,9.4-0.4,11.1c-0.6,3.8-1.9,7.3-4,10.3c-4.8,6.9-11.9,10.3-20.9,10.3
	c-9,0-15.9-3.3-20.9-9.8c-3.7-4.8-5.5-12.3-5.5-22.4V362.8z M220.8,299.2H238v41.8c5.6-6.9,11.5-10.3,17.8-10.3
	c6.9,0,11.5,3.6,13.8,10.8c1.2,3.8,1.7,10.1,1.7,19.1v37.9c0,8.8-0.6,15.2-1.7,19.2c-2.3,7.1-6.9,10.7-13.8,10.7
	c-6.1,0-12.1-3.4-17.8-10.5v9.2h-17.3V299.2z M156.2,331.8h17.3v70.1c0,4,0,6.1,0.2,6.7c0.4,2.7,1.7,4,4,4c3.5,0,7.1-2.7,10.9-8.1
	v-72.8h17.3V427h-17.3v-10.4c-6.9,7.9-13.4,11.7-19.7,11.7c-5.6,0-9.4-2.3-11.1-7.1c-0.9-2.9-1.5-7.4-1.5-14.2V331.8z M153.7,299.2
	v18H133V427h-19.2V317.2H93.5v-18H153.7z"/>
<path class="st0" d="M144.7,179.8l-13.7-50.7h-20.3c4.1,12,8.3,24,12.4,36c6.2,18,10.1,31.6,11.8,40.9v52.3h19.3V206l23.3-76.9
	h-19.6L144.7,179.8z"/>
<path class="st0" d="M254.1,399.8v-40.7c0-8.6-2.5-13-7.5-13c-2.8,0-5.7,1.4-8.6,4.2v58.1c2.9,2.9,5.8,4.2,8.6,4.2
	C251.6,412.6,254.1,408.4,254.1,399.8z"/>
<path class="st0" d="M203.4,160.9c-8.7,0-15.5,3.3-20.3,9.9c-3.7,4.9-5.5,12.4-5.5,22.7v33.7c0,10.2,1.7,17.8,5.5,22.6
	c4.8,6.6,11.6,9.9,20.3,9.9c8.7,0,15.5-3.3,20.3-9.9c3.7-4.8,5.4-12.4,5.4-22.6v-33.7c0-10.3-1.7-17.8-5.4-22.7
	C218.9,164.1,212.1,160.9,203.4,160.9z M211.7,230.4c0,8.9-2.7,13.4-8.3,13.4c-5.6,0-8.3-4.5-8.3-13.4v-40.5
	c0-8.9,2.7-13.3,8.3-13.3c5.6,0,8.3,4.4,8.3,13.3V230.4z"/>
<polygon class="st0" points="130.9,129.1 130.9,129.1 130.9,129.1 "/>
<polygon class="st1" points="95.8,313.6 115.5,313.6 115.5,420.4 134.2,420.4 134.2,313.6 154.3,313.6 154.3,296.1 95.8,296.1 "/>
<path class="st1" d="M236.3,411.4c5.6,6.9,11.4,10.3,17.3,10.3c6.7,0,11.2-3.5,13.4-10.4c1.1-3.9,1.7-10.1,1.7-18.7v-36.9
	c0-8.8-0.6-14.9-1.7-18.6c-2.2-6.9-6.7-10.5-13.4-10.5c-6.2,0-11.9,3.4-17.3,10v-40.6h-16.8v124.3h16.8V411.4z M236.3,345.8
	c2.8-2.8,5.6-4.1,8.4-4.1c4.8,0,7.3,4.3,7.3,12.6v39.5c0,8.4-2.5,12.5-7.3,12.5c-2.8,0-5.6-1.3-8.4-4.1V345.8z"/>
<path class="st1" d="M169,421.6c6.2,0,12.5-3.7,19.2-11.4v10.1H205v-92.6h-16.8v70.8c-3.7,5.3-7.2,7.9-10.6,7.9
	c-2.2,0-3.5-1.3-3.9-3.9c-0.2-0.5-0.2-2.6-0.2-6.5v-68.2h-16.8V401c0,6.5,0.6,11,1.5,13.8C159.9,419.4,163.6,421.6,169,421.6z"/>
<path class="st1" d="M307.5,421.6c8.8,0,15.6-3.3,20.3-10c2-3,3.4-6.3,3.9-10.1c0.2-1.7,0.4-5.4,0.4-10.8v-2.4h-17.1
	c0,6.7-0.2,10.5-0.4,11.4c-1,4.5-3.4,6.7-7.5,6.7c-5.8,0-8.6-4.3-8.6-12.8v-16.4h33.6v-19.2c0-9.9-1.7-17.1-5.2-21.8
	c-4.7-6.3-11.4-9.5-19.8-9.5c-8.6,0-15.3,3.2-20.1,9.5c-3.6,4.7-5.2,11.9-5.2,21.8v32.4c0,9.8,1.8,17.1,5.4,21.8
	C292,418.5,298.7,421.6,307.5,421.6z M298.5,354.6c0-8.6,2.8-12.8,8.4-12.8c5.6,0,8.4,4.3,8.4,12.8v8.6h-16.8V354.6z"/>
<g>
	<path class="st2" d="M202.6,176.8c-5.5,0-8.1,4.3-8.1,13v39.4c0,8.7,2.6,13,8.1,13c5.5,0,8.1-4.3,8.1-13v-39.4
		C210.7,181.1,208,176.8,202.6,176.8z"/>
	<path class="st2" d="M213.9,46.3C76.4,46.3-35,157.7-35,295.2C-35,430.8,73.4,541,208.3,544c1.9,0,3.7,0.1,5.6,0.1
		c134,0,243.2-105.9,248.7-238.6c0.1-3.4,0.2-6.9,0.2-10.3C462.8,157.7,351.4,46.3,213.9,46.3z M227.6,193.2V226
		c0,10-1.7,17.3-5.3,22c-4.7,6.4-11.3,9.6-19.8,9.6c-8.5,0-15.1-3.2-19.7-9.6c-3.6-4.7-5.3-12.1-5.3-22v-32.8
		c0-10,1.7-17.3,5.3-22.1c4.7-6.4,11.3-9.6,19.7-9.6c8.5,0,15.1,3.2,19.8,9.6C225.9,175.9,227.6,183.2,227.6,193.2z M132.2,130.7
		L132.2,130.7L132.2,130.7l13.4,49.3l8.2-31.5l4.6-17.9h19l-22.6,74.7v50.9h-18.8v-50.9c-1.7-9-5.5-22.2-11.5-39.7
		c-4-11.7-8.1-23.3-12.1-35H132.2z M347.9,428.5c-3.4,14.8-15.5,25.7-30,27.3c-34.4,3.8-69.3,3.9-104,3.8c-34.7,0-69.6,0-104-3.8
		c-4.7-0.5-9.2-2-13.2-4.3c-8.3-4.8-14.6-13-16.9-22.9c-4.8-21-4.8-44-4.8-65.6c0-21.7,0.1-44.6,4.9-65.6
		c3.4-14.8,15.5-25.7,30-27.3c12.9-1.4,25.9-2.3,38.9-2.9c21.7-0.9,43.4-0.9,65.1-0.9c34.7,0,69.5,0,104,3.8
		c14.5,1.6,26.6,12.5,30,27.3c4.8,21,4.8,44,4.8,65.6C352.8,384.5,352.7,407.5,347.9,428.5z M290.4,256.3h-17v-10.2
		c-6.8,7.7-13.2,11.5-19.4,11.5c-5.5,0-9.2-2.2-10.9-7c-0.9-2.8-1.5-7.3-1.5-13.9v-52.8v-21.2h16.9v68.9c0,4,0,6,0.2,6.6
		c0.4,2.6,1.7,4,4,4c3.4,0,7-2.6,10.7-7.9v-59.4v-12.1h17V256.3z"/>
</g>
<g>
	<polygon class="st1" points="145.5,180 153.7,148.6 132.2,130.7 	"/>
	<path class="st1" d="M202.6,176.8c-5.5,0-8.1,4.3-8.1,13v39.4c0,8.7,2.6,13,8.1,13c5.5,0,8.1-4.3,8.1-13v-39.4
		C210.6,181.1,208,176.8,202.6,176.8z"/>
	<path class="st1" d="M258.7,238.2c0.4,2.6,1.7,4,4,4c3.4,0,7-2.6,10.7-7.9v-59.4l-14.9-12.1v68.9
		C258.5,235.6,258.5,237.6,258.7,238.2z"/>
	<path class="st1" d="M462.5,305.5L290.3,162.7v93.6h-17v-10.2c-6.8,7.7-13.2,11.5-19.4,11.5c-5.5,0-9.2-2.2-10.9-7
		c-0.9-2.8-1.5-7.3-1.5-13.9v-52.8l-64.2-53.2l-22.6,74.7v50.9h-18.8l12.9,10.8c21.7-0.9,43.4-0.9,65.1-0.9c34.7,0,69.5,0,104,3.8
		c14.5,1.6,26.6,12.5,30,27.3c4.8,21,4.8,44,4.8,65.6c0,21.7,0,44.6-4.9,65.6c-3.4,14.8-15.5,25.7-30,27.3
		c-34.4,3.8-69.3,3.9-104,3.8c-34.7,0-69.6,0-104-3.8c-4.7-0.5-9.2-2-13.2-4.3L208.3,544c1.9,0,3.7,0.1,5.6,0.1
		C347.9,544.1,457.1,438.2,462.5,305.5z M227.6,226c0,10-1.7,17.3-5.3,22c-4.7,6.4-11.3,9.6-19.8,9.6c-8.5,0-15.1-3.2-19.7-9.6
		c-3.6-4.7-5.3-12.1-5.3-22v-32.8c0-10,1.7-17.3,5.3-22.1c4.7-6.4,11.3-9.6,19.7-9.6c8.5,0,15.1,3.2,19.8,9.6
		c3.6,4.7,5.3,12,5.3,22.1V226z"/>
</g>
</svg>
